# xmcd
#
# Track frame offsets:
#	150
#	14870
#	29295
#	44325
#	59183
#	73480
#	89190
#	102865
#	124600
#	138993
#	152958
#	165448
#	179030
#	193393
#
# Disc length: 2806 seconds
#
# Revision: 0
# Processed by: cddbd v1.4PL0 Copyright (c) Steve Scherf et al.
# Submitted via: dBpowerAMP V4.0
#
DISCID=df0af40e
DTITLE=Bjørn og Johnny - Kun for sjov
DYEAR=1994
DGENRE=Country
TTITLE0=Kun for sjov
TTITLE1=Lørdag nat
TTITLE2=Kærlige tanker
TTITLE3=I aften er vi to alene
TTITLE4=Ude på landet
TTITLE5=Måneskin og olietønder
TTITLE6=Det, der dur
TTITLE7=Såd'n er livet
TTITLE8=Hjerte rimer stadig på smerte
TTITLE9=Ingen dum idé
TTITLE10=Jeg kunne ønske mig (en stille nat med dig)
TTITLE11=En rigtig optimist
TTITLE12=Gi' dig tid til din familie
TTITLE13=Kom så alle mand
EXTD=
EXTT0=
EXTT1=
EXTT2=
EXTT3=
EXTT4=
EXTT5=
EXTT6=
EXTT7=
EXTT8=
EXTT9=
EXTT10=
EXTT11=
EXTT12=
EXTT13=
PLAYORDER=
